<?xml version="1.0" standalone="no"?>
<!DOCTYPE svg PUBLIC "-//W3C//DTD SVG 20010904//EN"
 "http://www.w3.org/TR/2001/REC-SVG-20010904/DTD/svg10.dtd">
<svg version="1.0" xmlns="http://www.w3.org/2000/svg"
 width="402.000000pt" height="125.000000pt" viewBox="0 0 402.000000 125.000000"
 preserveAspectRatio="xMidYMid meet">

<g transform="translate(0.000000,125.000000) scale(0.100000,-0.100000)"
fill="#000000" stroke="none">
<path d="M685 1174 c-11 -2 -45 -9 -75 -15 -85 -17 -186 -75 -261 -149 -107
-106 -159 -231 -159 -385 0 -154 52 -279 159 -385 113 -112 242 -165 401 -164
300 2 544 249 544 549 0 236 -156 450 -380 523 -61 20 -191 35 -229 26z m-32
-336 c27 -14 168 -13 195 1 38 20 52 14 52 -24 0 -20 7 -47 16 -61 12 -17 15
-39 12 -75 -6 -58 -26 -84 -82 -103 -32 -11 -35 -14 -21 -26 10 -8 15 -30 15
-65 0 -34 5 -55 13 -58 6 -2 8 -8 4 -13 -17 -18 -42 14 -48 62 -7 47 -7 47 -5
-14 0 -34 -2 -62 -6 -62 -21 0 -38 36 -39 83 l-2 52 -6 -55 c-7 -61 -15 -80
-36 -80 -11 0 -12 6 -5 26 13 33 13 94 0 94 -5 0 -10 -22 -10 -49 0 -35 -4
-51 -16 -55 -27 -10 -39 -7 -26 6 7 7 12 24 12 39 0 21 -6 28 -29 32 -31 6
-104 87 -79 87 8 0 25 -11 38 -25 28 -30 60 -32 84 -7 15 18 14 19 -23 31 -57
17 -81 52 -81 117 0 29 5 56 10 59 6 3 10 23 10 44 0 53 12 62 53 39z"/>
<path d="M1615 911 c-95 -43 -140 -141 -139 -301 1 -153 44 -235 144 -278 52
-23 202 -22 263 1 l47 19 0 154 0 154 -105 0 -105 0 0 -49 0 -50 43 -3 42 -3
3 -61 3 -61 -38 -6 c-22 -4 -55 -2 -74 3 -69 19 -99 78 -99 194 1 132 52 196
160 196 30 0 70 -4 87 -9 31 -9 33 -8 43 27 16 61 13 70 -27 81 -63 18 -202
13 -248 -8z"/>
<path d="M2520 615 l0 -296 58 3 57 3 3 128 3 127 89 0 90 0 0 -130 0 -130 60
0 60 0 0 295 0 295 -60 0 -60 0 0 -110 0 -110 -90 0 -90 0 0 110 0 110 -60 0
-60 0 0 -295z"/>
<path d="M3440 615 l0 -295 45 0 c33 0 45 4 45 15 0 19 0 19 41 -2 45 -23 146
-24 180 -1 47 30 64 82 64 193 0 161 -41 213 -161 203 -32 -3 -67 -9 -76 -13
-17 -7 -18 1 -18 94 l0 101 -60 0 -60 0 0 -295z m227 7 c31 -19 43 -111 22
-171 -13 -36 -44 -48 -92 -34 l-32 9 -3 94 c-2 68 1 96 10 102 16 10 79 10 95
0z"/>
<path d="M2014 874 c-60 -59 23 -146 89 -94 34 27 36 68 4 98 -31 29 -62 28
-93 -4z"/>
<path d="M2240 780 c0 -59 0 -60 -32 -68 -30 -7 -33 -12 -36 -50 l-3 -42 35 0
36 0 0 -104 c0 -114 11 -158 43 -179 30 -19 90 -29 132 -21 34 6 35 8 35 50 0
43 -1 44 -33 44 -51 0 -57 13 -57 117 l0 93 45 0 45 0 0 50 0 50 -45 0 -45 0
0 60 0 60 -60 0 -60 0 0 -60z"/>
<path d="M2000 520 l0 -200 60 0 60 0 0 200 0 200 -60 0 -60 0 0 -200z"/>
<path d="M3001 573 c0 -88 5 -162 12 -182 30 -84 128 -102 260 -46 12 5 17 3
17 -9 0 -12 10 -16 40 -16 l40 0 0 200 0 200 -60 0 -60 0 0 -145 c0 -160 -2
-165 -69 -165 -52 0 -61 26 -61 177 l0 133 -60 0 -60 0 1 -147z"/>
</g>
</svg>
